# xmcd
#
# Track frame offsets:
#	150
#	13147
#	34619
#	53934
#	94472
#	111782
#	132846
#	150772
#	178925
#	200545
#	228555
#	250094
#	271347
#	298692
#	334045
#
# Disc length: 4756 seconds
#
# Revision: 0
# Processed by: cddbd v1.5.2PL0 Copyright (c) Steve Scherf et al.
# Submitted via: EZCDAudioConverter 2.0.7.1
#
DISCID=d312920f
DTITLE=Various Artist - Histoire de la Musique Contemporaine Moderne vol.1
DYEAR=1900
DGENRE=
TTITLE0=Sixième Sillon - Nanan Boigny
TTITLE1=Les Soeurs Comoé - Abidjan Pont Sou
TTITLE2=Amédée Pierre - Soclokpeu
TTITLE3=Eba Aka Jérôme - Trahison
TTITLE4=Allah Thérèse - Fondio
TTITLE5=Mamadou Doumbia - N'teli Tche
TTITLE6=Ernesto Djédjé - Ziglibitens
TTITLE7=François Lougah - Dehimilké
TTITLE8=Jimmy Hyacinthe - Macquis Lo
TTITLE9=Wedji Ped - Exode Rurale
TTITLE10=Aïcha Koné - Linda
TTITLE11=Daouda le Sentimental - Gbaka Roulé
TTITLE12=Bailly Spinto - Niama
TTITLE13=Séry Simplice - Atto Boigny
TTITLE14=Guéï Victor - Lékiné
EXTD=
EXTT0=
EXTT1=
EXTT2=
EXTT3=
EXTT4=
EXTT5=
EXTT6=
EXTT7=
EXTT8=
EXTT9=
EXTT10=
EXTT11=
EXTT12=
EXTT13=
EXTT14=
PLAYORDER=
